<svg width="40" height="36" viewBox="0 0 40 36" fill="none" xmlns="http://www.w3.org/2000/svg">
<path d="M25.2391 1L25.6721 0.75L25.2391 -5.02311e-08L24.806 0.75L25.2391 1ZM38.4357 23.8573V24.3573H39.3017L38.8687 23.6073L38.4357 23.8573ZM12.0424 23.8573L11.6094 23.6073L11.1764 24.3573H12.0424V23.8573ZM24.806 1.25L38.0027 24.1073L38.8687 23.6073L25.6721 0.75L24.806 1.25ZM18.29 14.0361L25.6721 1.25L24.806 0.75L17.424 13.5361L18.29 14.0361ZM11.9286 12.6302C14.0051 12.6302 15.9449 13.2088 17.5973 14.2133L18.1168 13.3588C16.3122 12.2618 14.1934 11.6302 11.9286 11.6302V12.6302ZM1 23.5588C1 17.5231 5.89292 12.6302 11.9286 12.6302V11.6302C5.34063 11.6302 0 16.9708 0 23.5588H1ZM11.9286 34.4874C5.89292 34.4874 1 29.5945 1 23.5588H0C0 30.1468 5.34063 35.4874 11.9286 35.4874V34.4874ZM22.8536 23.8445C22.7023 29.748 17.8689 34.4874 11.9286 34.4874V35.4874C18.4126 35.4874 23.6881 30.3144 23.8533 23.8701L22.8536 23.8445ZM38.4357 23.3573H23.3535V24.3573H38.4357V23.3573ZM23.3535 23.3573H12.0424V24.3573H23.3535V23.3573ZM12.4754 24.1073L18.29 14.0361L17.424 13.5361L11.6094 23.6073L12.4754 24.1073ZM17.5973 14.2133C20.752 16.1311 22.8573 19.5993 22.8573 23.5588H23.8573C23.8573 19.2358 21.5574 15.4505 18.1168 13.3588L17.5973 14.2133ZM22.8573 23.5588C22.8573 23.6543 22.8561 23.7496 22.8536 23.8445L23.8533 23.8701C23.8559 23.7666 23.8573 23.6629 23.8573 23.5588H22.8573Z" fill="#919CA9"/>
</svg>
