<svg width="10" height="14" viewBox="0 0 10 14" fill="none" xmlns="http://www.w3.org/2000/svg">
<path fill-rule="evenodd" clip-rule="evenodd" d="M0.999919 12.3333H8.99992C9.36659 12.3333 9.66659 12.6333 9.66659 13C9.66659 13.3667 9.36659 13.6667 8.99992 13.6667H0.999919C0.633252 13.6667 0.333252 13.3667 0.333252 13C0.333252 12.6333 0.633252 12.3333 0.999919 12.3333ZM4.99992 3.66666C4.26659 3.66666 3.66659 4.26666 3.66659 5C3.66659 5.73333 4.26659 6.33333 4.99992 6.33333C5.35354 6.33333 5.69268 6.19285 5.94273 5.9428C6.19278 5.69276 6.33325 5.35362 6.33325 5C6.33325 4.64637 6.19278 4.30723 5.94273 4.05719C5.69268 3.80714 5.35354 3.66666 4.99992 3.66666ZM4.99992 0.333328C7.17992 0.333328 9.66659 1.97333 9.66659 5.09999C9.66659 7.08666 8.24659 9.18 5.40659 11.36C5.16658 11.5467 4.83325 11.5467 4.59325 11.36C1.75325 9.17333 0.333252 7.08666 0.333252 5.09999C0.333252 1.97333 2.81992 0.333328 4.99992 0.333328Z" fill="#DE4C5B"/>
</svg>
