<svg width="10" height="14" viewBox="0 0 10 14" fill="none" xmlns="http://www.w3.org/2000/svg">
<path fill-rule="evenodd" clip-rule="evenodd" d="M1.00004 12.333H9.00004C9.36671 12.333 9.66671 12.633 9.66671 12.9997C9.66671 13.3663 9.36671 13.6663 9.00004 13.6663H1.00004C0.633374 13.6663 0.333374 13.3663 0.333374 12.9997C0.333374 12.633 0.633374 12.333 1.00004 12.333ZM5.00004 3.66634C4.26671 3.66634 3.66671 4.26634 3.66671 4.99967C3.66671 5.73301 4.26671 6.33301 5.00004 6.33301C5.35366 6.33301 5.6928 6.19253 5.94285 5.94248C6.1929 5.69243 6.33337 5.3533 6.33337 4.99967C6.33337 4.64605 6.1929 4.30691 5.94285 4.05687C5.6928 3.80682 5.35366 3.66634 5.00004 3.66634V3.66634ZM5.00004 0.333008C7.18004 0.333008 9.66671 1.97301 9.66671 5.09967C9.66671 7.08634 8.24671 9.17968 5.40671 11.3597C5.16671 11.5463 4.83337 11.5463 4.59337 11.3597C1.75337 9.17301 0.333374 7.08634 0.333374 5.09967C0.333374 1.97301 2.82004 0.333008 5.00004 0.333008Z" fill="#DE4C5B"/>
</svg>
