<svg width="14" height="15" viewBox="0 0 14 15" fill="none" xmlns="http://www.w3.org/2000/svg">
<path fill-rule="evenodd" clip-rule="evenodd" d="M7.6734 1.00275C7.54739 0.745834 7.28618 0.583008 7.00003 0.583008C6.71387 0.583008 6.45266 0.745833 6.32665 1.00275L4.50041 4.72629L0.890788 5.25767C0.610059 5.299 0.37669 5.49522 0.287785 5.76468C0.198879 6.03415 0.269661 6.33072 0.470678 6.53099L3.17678 9.22704L2.26863 13.2271C2.20408 13.5114 2.31017 13.8074 2.54064 13.986C2.77112 14.1646 3.08421 14.1934 3.34342 14.0599L7.00002 12.1766L10.6566 14.0599C10.9158 14.1934 11.2289 14.1646 11.4594 13.986C11.6899 13.8074 11.796 13.5114 11.7314 13.2271L10.8233 9.22704L13.5294 6.53099C13.7304 6.33072 13.8012 6.03415 13.7123 5.76468C13.6234 5.49522 13.39 5.299 13.1093 5.25767L9.49964 4.72629L7.6734 1.00275Z" fill="#FFA659"/>
</svg>
