<svg width="30" height="30" viewBox="0 0 30 30" fill="none" xmlns="http://www.w3.org/2000/svg">
<path fill-rule="evenodd" clip-rule="evenodd" d="M5.6845 29.2311H14.7692H23.854C23.854 29.2311 25.5801 20.89 25.5377 15.8673C25.4953 10.8446 14.7692 10.7695 14.7692 10.7695C14.7692 10.7695 4.04298 10.8446 4.00077 15.8673C3.9584 20.89 5.6845 29.2311 5.6845 29.2311Z" fill="#27232C"/>
<rect x="12.551" y="22.959" width="4.39669" height="4.64833" fill="#FCD3AC"/>
<path d="M12.551 23.5065C12.551 23.5065 14.4005 24.6182 16.9477 24.3608V22.959H12.551V23.5065Z" fill="#FCBC85"/>
<ellipse cx="6.21124" cy="15.7508" rx="2.14532" ry="2.3104" fill="#FCBC85"/>
<ellipse cx="23.2877" cy="15.7508" rx="2.14532" ry="2.3104" fill="#FCBC85"/>
<path fill-rule="evenodd" clip-rule="evenodd" d="M23.279 10.5691C23.279 7.16591 20.641 4.67578 14.7495 4.67578C8.85795 4.67578 6.22009 7.16591 6.22009 10.5691C6.22009 13.9723 5.6046 22.9367 14.7495 22.9367C23.8945 22.9367 23.279 13.9723 23.279 10.5691Z" fill="#FCD3AC"/>
<ellipse cx="10.5949" cy="14.4292" rx="0.923312" ry="0.954572" fill="#27232C"/>
<ellipse cx="10.1924" cy="14.0077" rx="0.276111" ry="0.260633" fill="white"/>
<path d="M9.11792 12.371C9.55453 12.5287 10.2554 11.8348 11.8603 12.4385C12.1529 12.5486 12.3275 11.4971 10.6072 11.4971C9.11792 11.4971 8.85408 12.2757 9.11792 12.371Z" fill="#27232C"/>
<ellipse cx="19.018" cy="14.4292" rx="0.923311" ry="0.954572" fill="#27232C"/>
<ellipse cx="18.6155" cy="14.7772" rx="0.276112" ry="0.260633" fill="white"/>
<path d="M20.3811 12.371C19.9444 12.5287 19.2434 11.8348 17.6386 12.4385C17.3461 12.5486 17.1715 11.4971 18.8916 11.4971C20.3811 11.4971 20.6447 12.2757 20.3811 12.371Z" fill="#27232C"/>
<path d="M14.7494 18.5558C13.8371 18.5558 13.2876 17.9124 13.2876 18.2237C13.2876 18.5349 13.5514 19.1265 14.7494 19.1265C15.9476 19.1265 16.2113 18.5351 16.2113 18.2237C16.2114 17.9124 15.6618 18.5558 14.7494 18.5558Z" fill="#FCBC85"/>
<path d="M14.7492 21.4177C14.4338 21.4177 14.2437 21.1953 14.2437 21.3028C14.2437 21.4105 14.3349 21.6151 14.7492 21.6151C15.1637 21.6151 15.2549 21.4105 15.2549 21.3028C15.2549 21.1953 15.065 21.4177 14.7492 21.4177Z" fill="#FCBC85"/>
<path d="M14.7493 20.6244C13.3032 20.6244 12.4321 20.0685 12.4321 20.2094C12.4321 20.3503 12.8502 20.9046 14.7493 20.9046C16.6484 20.9046 17.0666 20.3502 17.0666 20.2094C17.0666 20.0686 16.1954 20.6244 14.7493 20.6244Z" fill="#F7945E"/>
<ellipse cx="10.6606" cy="17.0661" rx="0.769231" ry="0.769231" fill="#F9AA8D"/>
<ellipse cx="18.9921" cy="17.0661" rx="0.76923" ry="0.769231" fill="#F9AA8D"/>
<path fill-rule="evenodd" clip-rule="evenodd" d="M5.53857 29.9998H14.7693H24.0001C24.0001 27.8204 19.6168 24.6152 14.7693 24.6152C9.92209 24.6152 5.53857 27.8204 5.53857 29.9998Z" fill="#FA7268"/>
<path fill-rule="evenodd" clip-rule="evenodd" d="M12.9193 24.7801C12.8895 24.7841 12.8595 24.7898 12.8296 24.7941C12.2044 24.8883 11.5945 25.0213 11.0085 25.1883L14.7692 29.9999V27.2481L13.1197 24.7578C13.0533 24.7666 12.9856 24.7706 12.9193 24.7801Z" fill="#FA7268"/>
<path fill-rule="evenodd" clip-rule="evenodd" d="M16.6609 24.778C16.6908 24.782 16.7208 24.7877 16.7508 24.792C17.376 24.8862 17.9858 25.0192 18.5717 25.1862L14.7693 30.0001V27.2482L16.4605 24.7559C16.5269 24.7645 16.5948 24.7685 16.6609 24.778Z" fill="#FA7268"/>
<path d="M14.769 0.769531C4.81907 0.769531 3.65304 7.60013 4.07092 15.6573C4.4888 23.7146 11.5335 27.6926 11.5335 27.6926C11.5335 27.6926 3.63941 16.7286 10.2059 7.11463C10.2059 7.11463 8.97289 9.17248 9.03969 10.8962C9.03969 10.8962 10.5866 10.3835 14.7692 10.3835C18.9519 10.3835 20.4987 10.8962 20.4987 10.8962C20.5656 9.17248 19.3326 7.11463 19.3326 7.11463C25.8991 16.7284 18.0049 27.6926 18.0049 27.6926C18.0049 27.6926 25.0497 23.7146 25.4676 15.6573C25.8853 7.60013 24.7193 0.769531 14.769 0.769531Z" fill="#2C2862"/>
<path d="M12.4321 24.8542L14.7692 28.462L17.0475 24.8541C17.0477 24.8541 14.6535 24.0595 12.4321 24.8542Z" fill="#FCD3AC"/>
</svg>
