<svg width="13" height="15" viewBox="0 0 13 15" fill="none" xmlns="http://www.w3.org/2000/svg">
<path d="M8.3334 0.666664H5.66673C5.30007 0.666664 5.00007 0.966664 5.00007 1.33333C5.00007 1.7 5.30007 2 5.66673 2H8.3334C8.70007 2 9.00007 1.7 9.00007 1.33333C9.00007 0.966664 8.70007 0.666664 8.3334 0.666664ZM7.00007 9.33333C7.36673 9.33333 7.66673 9.03333 7.66673 8.66666V6C7.66673 5.63333 7.36673 5.33333 7.00007 5.33333C6.6334 5.33333 6.3334 5.63333 6.3334 6V8.66666C6.3334 9.03333 6.6334 9.33333 7.00007 9.33333ZM11.6867 4.92666L12.1867 4.42666C12.4401 4.17333 12.4467 3.75333 12.1867 3.49333L12.1801 3.48666C11.9201 3.22666 11.5067 3.23333 11.2467 3.48666L10.7467 3.98666C9.7134 3.16 8.4134 2.66666 7.00007 2.66666C3.80007 2.66666 1.08007 5.30666 1.00007 8.50666C0.9134 11.8933 3.62673 14.6667 7.00007 14.6667C10.3201 14.6667 13.0001 11.98 13.0001 8.66666C13.0001 7.25333 12.5067 5.95333 11.6867 4.92666ZM7.00007 13.3333C4.42007 13.3333 2.3334 11.2467 2.3334 8.66666C2.3334 6.08666 4.42007 4 7.00007 4C9.58007 4 11.6667 6.08666 11.6667 8.66666C11.6667 11.2467 9.58007 13.3333 7.00007 13.3333Z" fill="#44AC99"/>
</svg>
