<svg width="21" height="20" viewBox="0 0 21 20" fill="none" xmlns="http://www.w3.org/2000/svg">
<path d="M4.93248 12.0866L4.2363 14.6855L1.69177 14.7394C0.931334 13.3289 0.5 11.7152 0.5 10.0003C0.5 8.34207 0.903287 6.7783 1.61814 5.40137H1.61869L3.88403 5.81668L4.87638 8.06843C4.66869 8.67395 4.55548 9.32396 4.55548 10.0003C4.55556 10.7344 4.68853 11.4377 4.93248 12.0866Z" fill="#FBBB00"/>
<path d="M20.3254 8.13184C20.4402 8.73677 20.5001 9.3615 20.5001 9.99999C20.5001 10.7159 20.4249 11.4143 20.2815 12.0879C19.7947 14.3803 18.5226 16.3819 16.7606 17.7984L16.76 17.7979L13.9067 17.6523L13.5029 15.1314C14.6721 14.4457 15.5858 13.3726 16.0672 12.0879H10.7198V8.13184H16.1452H20.3254Z" fill="#518EF8"/>
<path d="M16.7602 17.7985L16.7608 17.7991C15.047 19.1765 12.87 20.0007 10.5003 20.0007C6.69196 20.0007 3.38094 17.8721 1.69189 14.7397L4.9326 12.0869C5.7771 14.3408 7.95131 15.9452 10.5003 15.9452C11.5959 15.9452 12.6223 15.649 13.503 15.132L16.7602 17.7985Z" fill="#28B446"/>
<path d="M16.8832 2.30222L13.6436 4.95444C12.7321 4.38467 11.6545 4.05552 10.5002 4.05552C7.89352 4.05552 5.67865 5.73355 4.87645 8.06823L1.61871 5.40116H1.61816C3.28248 2.19233 6.63526 0 10.5002 0C12.9266 0 15.1513 0.864308 16.8832 2.30222Z" fill="#F14336"/>
</svg>
