<svg width="48" height="48" viewBox="0 0 48 48" fill="none" xmlns="http://www.w3.org/2000/svg">
<rect x="0.5" y="0.5" width="47" height="47" rx="23.5" fill="white"/>
<path d="M18.4325 26.0864L17.7363 28.6853L15.1918 28.7391C14.4313 27.3287 14 25.715 14 24.0001C14 22.3418 14.4033 20.7781 15.1181 19.4011H15.1187L17.384 19.8164L18.3764 22.0682C18.1687 22.6737 18.0555 23.3237 18.0555 24.0001C18.0556 24.7342 18.1885 25.4375 18.4325 26.0864Z" fill="#FBBB00"/>
<path d="M33.8254 22.1318C33.9402 22.7368 34.0001 23.3615 34.0001 24C34.0001 24.7159 33.9249 25.4143 33.7815 26.0879C33.2947 28.3803 32.0226 30.3819 30.2606 31.7984L30.26 31.7979L27.4067 31.6523L27.0029 29.1314C28.1721 28.4457 29.0858 27.3726 29.5672 26.0879H24.2198V22.1318H29.6452H33.8254Z" fill="#518EF8"/>
<path d="M30.2601 31.798L30.2606 31.7986C28.5469 33.176 26.3699 34.0002 24.0001 34.0002C20.1918 34.0002 16.8808 31.8717 15.1918 28.7392L18.4325 26.0864C19.277 28.3403 21.4512 29.9447 24.0001 29.9447C25.0957 29.9447 26.1221 29.6485 27.0029 29.1315L30.2601 31.798Z" fill="#28B446"/>
<path d="M30.3832 16.3022L27.1436 18.9544C26.2321 18.3847 25.1545 18.0555 24.0002 18.0555C21.3935 18.0555 19.1786 19.7336 18.3764 22.0682L15.1187 19.4012H15.1182C16.7825 16.1923 20.1353 14 24.0002 14C26.4266 14 28.6513 14.8643 30.3832 16.3022Z" fill="#F14336"/>
<rect x="0.5" y="0.5" width="47" height="47" rx="23.5" stroke="#E5E7EB"/>
</svg>
