<svg width="18" height="16" viewBox="0 0 18 16" fill="none" xmlns="http://www.w3.org/2000/svg">
<path d="M15.3834 1.325C13.1834 -0.174997 10.4668 0.525003 9.0001 2.24167C7.53343 0.525003 4.81676 -0.18333 2.61676 1.325C1.4501 2.125 0.716763 3.475 0.666763 4.9C0.550096 8.13334 3.41676 10.725 7.79176 14.7L7.8751 14.775C8.50843 15.35 9.48343 15.35 10.1168 14.7667L10.2084 14.6833C14.5834 10.7167 17.4418 8.125 17.3334 4.89167C17.2834 3.475 16.5501 2.125 15.3834 1.325ZM9.08343 13.4583L9.0001 13.5417L8.91676 13.4583C4.9501 9.86667 2.33343 7.49167 2.33343 5.08334C2.33343 3.41667 3.58343 2.16667 5.2501 2.16667C6.53343 2.16667 7.78343 2.99167 8.2251 4.13334H9.78343C10.2168 2.99167 11.4668 2.16667 12.7501 2.16667C14.4168 2.16667 15.6668 3.41667 15.6668 5.08334C15.6668 7.49167 13.0501 9.86667 9.08343 13.4583Z" fill="#EB5C4B"/>
</svg>
