<svg width="18" height="18" viewBox="0 0 18 18" fill="none" xmlns="http://www.w3.org/2000/svg">
<path d="M15.6302 2.37271C14.8591 1.60037 13.9588 1.00167 12.9536 0.593441C11.9844 0.200265 10.961 0.000700226 9.91027 0C8.85816 0 7.83545 0.198864 6.86801 0.59099C5.86524 0.997121 4.96463 1.59406 4.19138 2.36676C3.84954 2.70847 3.84884 3.2627 4.19033 3.60441C4.53182 3.94717 5.08569 3.94717 5.42718 3.60581C6.03388 2.99977 6.73925 2.53167 7.5244 2.21376C8.2826 1.90636 9.08419 1.75056 9.90712 1.75056C10.7339 1.75126 11.5372 1.90776 12.2965 2.21551C13.0834 2.53517 13.7884 3.00432 14.3937 3.61036C14.9987 4.21501 15.4672 4.92084 15.7863 5.70754C16.0942 6.46798 16.2502 7.27149 16.2502 8.09461C16.2502 8.91737 16.0942 9.72018 15.7866 10.4796C15.4668 11.2663 14.9983 11.9718 14.3937 12.5761C13.7874 13.1817 13.082 13.6502 12.2969 13.9685C11.539 14.2755 10.7381 14.4313 9.91622 14.4313C9.09189 14.4278 8.28645 14.2748 7.52475 13.966C6.73855 13.647 6.03318 13.1779 5.42788 12.5722C4.82327 11.9676 4.35478 11.2617 4.03498 10.475C3.72743 9.71528 3.57138 8.91177 3.57138 8.08761C3.57138 7.6041 3.17986 7.21232 2.69666 7.21232C2.21347 7.21232 1.82195 7.6041 1.82195 8.08761C1.82195 9.13864 2.02103 10.1634 2.41395 11.1332C2.71206 11.8674 3.11373 12.5435 3.60707 13.1562L0.256554 16.5057C-0.0852848 16.8474 -0.0856346 17.4017 0.256204 17.7437C0.426949 17.9146 0.650877 18 0.875154 18C1.09908 18 1.32266 17.9146 1.4934 17.7441L4.84427 14.3938C5.45692 14.8885 6.1336 15.2905 6.86731 15.5884C7.83755 15.9816 8.86166 16.1815 9.91062 16.1819H9.91692C10.9648 16.1819 11.9868 15.983 12.9539 15.5909C13.9567 15.1851 14.8573 14.5875 15.6302 13.8148C16.4017 13.0442 16.9997 12.1437 17.408 11.1378C17.8009 10.1676 18 9.1439 18 8.09496C17.9993 7.04497 17.7999 6.02054 17.4069 5.04968C16.999 4.04415 16.401 3.14331 15.6302 2.37271Z" fill="#27232C"/>
</svg>
