<svg width="23" height="24" viewBox="0 0 23 24" fill="#000000" xmlns="http://www.w3.org/2000/svg">
<path fill-rule="evenodd" clip-rule="evenodd" d="M22.4262 13.4532C22.6472 13.8147 22.7198 14.2526 22.6276 14.6699C22.5354 15.0869 22.2863 15.4487 21.9358 15.6749C21.0751 16.2309 20.6005 17.2507 20.7172 18.2942C20.7666 18.7198 20.6493 19.1479 20.3917 19.4829C20.134 19.8182 19.7574 20.0323 19.3462 20.0773C18.6086 20.159 17.9401 20.563 17.5089 21.188C17.3563 21.4016 17.2361 21.6377 17.1525 21.8889C17.0281 22.2627 16.7755 22.5761 16.4426 22.7693C16.4289 22.7772 16.4152 22.7843 16.4014 22.7914C16.3877 22.7985 16.3739 22.8055 16.3602 22.8134C15.9874 22.9989 15.559 23.0227 15.1689 22.8797C14.2135 22.5286 13.1484 22.7792 12.4331 23.5235C12.274 23.692 12.0803 23.8215 11.8664 23.9022C11.5221 24.0326 11.1443 24.0326 10.8 23.9022C10.5864 23.8215 10.3927 23.692 10.2335 23.5235C9.73964 23.01 9.06842 22.7216 8.36893 22.7219C8.0717 22.7213 7.77685 22.7746 7.49748 22.8797C7.10772 23.0227 6.67898 22.9989 6.30618 22.8134C6.29249 22.8055 6.2788 22.7985 6.26511 22.7914C6.25143 22.7843 6.23774 22.7772 6.22406 22.7693C5.89113 22.5761 5.63823 22.2627 5.51416 21.8889C5.43026 21.6377 5.31006 21.4016 5.15773 21.188C4.72661 20.563 4.05807 20.159 3.3205 20.0773C2.90932 20.0323 2.53235 19.8182 2.2747 19.4829C2.01704 19.1479 1.89981 18.7198 1.9495 18.2942C2.06613 17.2507 1.59157 16.2309 0.73083 15.6749C0.380046 15.4487 0.131017 15.0869 0.0390808 14.6699C-0.0531523 14.2526 0.0194441 13.8147 0.240209 13.4532C0.7826 12.5659 0.7826 11.4343 0.240209 10.5467C0.0194441 10.1852 -0.0531523 9.74728 0.0390808 9.33C0.131017 8.91302 0.380046 8.55121 0.73083 8.32501C1.59157 7.76904 2.06613 6.74926 1.9495 5.70574C1.9013 5.28075 2.01882 4.85299 2.27618 4.5183C2.53384 4.18331 2.90962 3.96912 3.3205 3.92258C4.32852 3.80948 5.18302 3.10373 5.51416 2.11138C5.64924 1.70673 5.93457 1.37481 6.30707 1.18929C6.67957 1.00376 7.10801 0.980029 7.49748 1.12334C8.45343 1.47343 9.51857 1.22165 10.2335 0.476454C10.5236 0.171659 10.9199 0 11.3332 0C11.7467 0 12.1428 0.171659 12.4331 0.476454C13.1478 1.22165 14.2129 1.47343 15.1689 1.12334C15.5584 0.980029 15.9871 1.00376 16.3593 1.18929C16.7318 1.37481 17.0174 1.70673 17.1525 2.11138C17.4837 3.10373 18.3382 3.80948 19.3462 3.92258C19.7568 3.96912 20.1328 4.18331 20.3902 4.5183C20.6479 4.85299 20.7654 5.28075 20.7172 5.70574C20.6005 6.74926 21.0751 7.76904 21.9358 8.32501C22.2863 8.55121 22.5354 8.91302 22.6276 9.33C22.7198 9.74728 22.6472 10.1852 22.4262 10.5467C21.8838 11.4343 21.8838 12.5659 22.4262 13.4532ZM11.3332 2.19952C7.18507 2.19767 3.51984 4.99537 2.29344 9.10009C1.06704 13.2045 2.56568 17.6581 5.98931 20.0835C7.41089 21.0996 9.07556 21.6895 10.8 21.7878C10.9768 21.7973 11.1535 21.8035 11.3332 21.8035C11.5129 21.8035 11.6896 21.7973 11.8664 21.7878C16.9793 21.487 20.9332 17.0275 20.7889 11.7252C20.6446 6.42289 16.4542 2.20167 11.3332 2.19952ZM11.8664 20.6801C12.7467 20.6244 13.6128 20.4231 14.4316 20.0835C18.1766 18.5435 20.3372 14.4653 19.5803 10.3661C18.8234 6.26695 15.3623 3.30251 11.3332 3.30251C7.30408 3.30251 3.84296 6.26695 3.08605 10.3661C2.32914 14.4653 4.49008 18.5435 8.23475 20.0835C9.05384 20.4231 9.91964 20.6244 10.8 20.6801C10.9768 20.6928 11.1535 20.6989 11.3332 20.6989C11.5129 20.6989 11.6896 20.6928 11.8664 20.6801ZM13.4751 9.54943L11.8116 6.05923C11.7224 5.87 11.5367 5.75012 11.3332 5.75012C11.13 5.75012 10.9443 5.87 10.8551 6.05923L9.19159 9.54943L5.47162 10.1082C5.27079 10.139 5.10417 10.2851 5.04139 10.4851C4.97891 10.6851 5.03098 10.9045 5.17588 11.0518L7.86909 13.7688L7.23238 17.6063C7.19846 17.8134 7.28088 18.0224 7.44511 18.1456C7.60934 18.2689 7.82684 18.2849 8.00625 18.1869L11.3332 16.3754L14.6601 18.1869C14.736 18.2295 14.8208 18.2513 14.9071 18.2501C15.0195 18.251 15.1296 18.2144 15.221 18.1459C15.3849 18.0224 15.4673 17.8134 15.434 17.6063L14.7973 13.7688L17.4905 11.0518C17.6357 10.9045 17.6878 10.6851 17.6253 10.4851C17.5625 10.2851 17.3959 10.139 17.1951 10.1082L13.4751 9.54943ZM13.7006 13.6677C13.6709 13.4886 13.7277 13.3059 13.8529 13.1786L15.9704 11.0423L13.0425 10.6003C12.8687 10.5751 12.7191 10.4613 12.6435 10.2974L11.3332 7.55177L10.0232 10.2974C9.94761 10.4613 9.79765 10.5751 9.6242 10.6003L6.69624 11.0423L8.81373 13.1786C8.93899 13.3059 8.99582 13.4886 8.96607 13.6677L8.46622 16.6879L11.0865 15.2616C11.241 15.1775 11.4257 15.1775 11.5801 15.2616L14.2002 16.6879L13.7006 13.6677Z" fill="#B7B6F7"/>
</svg>
