<svg width="48" height="48" viewBox="0 0 48 48" fill="none" xmlns="http://www.w3.org/2000/svg">
<rect width="48" height="48" rx="24" fill="#55ACEE"/>
<path d="M31.945 19.9275C32.7583 19.35 33.4425 18.6292 34 17.7992V17.7983C33.2558 18.1242 32.4642 18.3408 31.6375 18.4458C32.4875 17.9383 33.1367 17.1408 33.4417 16.18C32.6492 16.6525 31.7742 16.9858 30.8417 17.1725C30.0892 16.3708 29.0167 15.875 27.8467 15.875C25.5767 15.875 23.7492 17.7175 23.7492 19.9758C23.7492 20.3008 23.7767 20.6133 23.8442 20.9108C20.4358 20.7442 17.4192 19.1108 15.3925 16.6217C15.0392 17.2358 14.8308 17.9383 14.8308 18.6942C14.8308 20.1142 15.5617 21.3725 16.6525 22.1017C15.9933 22.0892 15.3475 21.8975 14.8 21.5967V21.6417C14.8 23.6342 16.2208 25.2892 18.085 25.6708C17.7508 25.7625 17.3875 25.8058 17.01 25.8058C16.7475 25.8058 16.4825 25.7908 16.2342 25.7358C16.765 27.3592 18.2733 28.5533 20.065 28.5925C18.67 29.6833 16.8983 30.3408 14.9808 30.3408C14.645 30.3408 14.3225 30.3258 14 30.285C15.8167 31.4558 17.9683 32.125 20.29 32.125C27.5258 32.125 32.2417 26.0883 31.945 19.9275Z" fill="white"/>
</svg>
